HIERARCHY
ROOT Hips
{
	OFFSET 53.144600 2.623441 56.095100
	CHANNELS 6 Xposition Yposition Zposition Xrotation Yrotation Zrotation
	JOINT spine
	{
		OFFSET 0.000000 -0.458068 7.965683
		CHANNELS 3 Xrotation Yrotation Zrotation
		JOINT spine1
		{
			OFFSET 0.000000 -0.000002 10.243103
			CHANNELS 3 Xrotation Yrotation Zrotation
			JOINT spine2
			{
				OFFSET 0.000000 -0.000001 9.814751
				CHANNELS 3 Xrotation Yrotation Zrotation
				JOINT Neck
				{
					OFFSET 0.000000 -1.201384 25.198601
					CHANNELS 3 Xrotation Yrotation Zrotation
					JOINT Head
					{
						OFFSET 0.000000 -0.000001 7.613152
						CHANNELS 3 Xrotation Yrotation Zrotation
						End Site
						{
							OFFSET 0.000000 6.077327 18.428101
						}
					}
				}
				JOINT RightShoulder
				{
					OFFSET -4.132698 0.575449 10.599197
					CHANNELS 3 Xrotation Yrotation Zrotation
					JOINT RightArm
					{
						OFFSET 0.000000 -0.000002 13.901802
						CHANNELS 3 Xrotation Yrotation Zrotation
						JOINT RightArmRoll
						{
							OFFSET 0.000000 -0.000001 7.017891
							CHANNELS 3 Xrotation Yrotation Zrotation
							JOINT RightForeArm
							{
								OFFSET 0.000000 -0.000003 20.440598
								CHANNELS 3 Xrotation Yrotation Zrotation
								JOINT RightForeArmRoll
								{
									OFFSET 0.000000 -0.000001 7.875153
									CHANNELS 3 Xrotation Yrotation Zrotation
									JOINT RightHand
									{
										OFFSET 0.000000 -0.000003 15.803696
										CHANNELS 3 Xrotation Yrotation Zrotation
										End Site
										{
											OFFSET 0.000000 0.000000 0.100006
										}
									}
								}
							}
						}
					}
				}
				JOINT LeftShoulder
				{
					OFFSET 4.132698 0.575449 10.599197
					CHANNELS 3 Xrotation Yrotation Zrotation
					JOINT LeftArm
					{
						OFFSET 0.000000 -0.000002 13.901802
						CHANNELS 3 Xrotation Yrotation Zrotation
						JOINT LeftArmRoll
						{
							OFFSET 0.000000 -0.000001 7.017891
							CHANNELS 3 Xrotation Yrotation Zrotation
							JOINT LeftForeArm
							{
								OFFSET 0.000000 -0.000003 20.440598
								CHANNELS 3 Xrotation Yrotation Zrotation
								JOINT LeftForeArmRoll
								{
									OFFSET 0.000000 -0.000001 7.875153
									CHANNELS 3 Xrotation Yrotation Zrotation
									JOINT LeftHand
									{
										OFFSET 0.000000 -0.000003 15.803696
										CHANNELS 3 Xrotation Yrotation Zrotation
										End Site
										{
											OFFSET 0.000000 0.000000 0.100006
										}
									}
								}
							}
						}
					}
				}
			}
		}
	}
	JOINT RightUpLeg
	{
		OFFSET -7.060478 1.086100 -1.294701
		CHANNELS 3 Xrotation Yrotation Zrotation
		JOINT RightUpLegRoll
		{
			OFFSET 0.000000 -0.000003 18.530800
			CHANNELS 3 Xrotation Yrotation Zrotation
			JOINT RightLeg
			{
				OFFSET 0.000000 0.000004 -22.947601
				CHANNELS 3 Xrotation Yrotation Zrotation
				JOINT RightLegRoll
				{
					OFFSET 0.000000 -0.000004 23.022598
					CHANNELS 3 Xrotation Yrotation Zrotation
					JOINT RightFoot
					{
						OFFSET 0.000000 -0.000003 19.162498
						CHANNELS 3 Xrotation Yrotation Zrotation
						JOINT RightToeBase
						{
							OFFSET 0.000000 -0.000003 16.018799
							CHANNELS 3 Xrotation Yrotation Zrotation
							End Site
							{
								OFFSET 0.006790 0.894205 7.757820
							}
						}
					}
				}
			}
		}
	}
	JOINT LeftUpLeg
	{
		OFFSET 7.060478 1.086100 -1.294701
		CHANNELS 3 Xrotation Yrotation Zrotation
		JOINT LeftUpLegRoll
		{
			OFFSET 0.000000 -0.000003 18.530899
			CHANNELS 3 Xrotation Yrotation Zrotation
			JOINT LeftLeg
			{
				OFFSET 0.000000 -0.000004 22.947502
				CHANNELS 3 Xrotation Yrotation Zrotation
				JOINT LeftLegRoll
				{
					OFFSET 0.000000 -0.000004 23.235497
					CHANNELS 3 Xrotation Yrotation Zrotation
					JOINT LeftFoot
					{
						OFFSET 0.000000 -0.000003 18.949600
						CHANNELS 3 Xrotation Yrotation Zrotation
						JOINT LeftToeBase
						{
							OFFSET 0.000000 -0.000003 16.018799
							CHANNELS 3 Xrotation Yrotation Zrotation
							End Site
							{
								OFFSET -0.030430 0.894206 7.757812
							}
						}
					}
				}
			}
		}
	}
}
MOTION
Frames: 11
Frame Time: 0.041667
54.031601 -28.229422 96.903801 -2.791662 0.534404 0.107225 -1.220712 0.094636 -0.227113 1.561790 0.198691 -0.432640 3.206848 0.193495 -0.434989 15.236617 5.347869 -0.168598 20.184360 -4.764454 1.059748 -9.445544 -70.492921 -11.838390 -57.618567 -119.962096 -49.764277 0.000001 0.000004 0.000001 8.126651 -7.110671 -0.386748 -0.000019 -0.000002 -2.999990 -5.000219 -7.999121 0.000114 -14.308090 61.206520 16.969986 -46.718470 117.736410 54.495682 -0.000001 -0.000003 0.000001 19.042622 16.205245 -2.109055 -0.000009 -0.000022 3.000000 -5.000248 7.998824 -0.000165 -0.247550 -176.789024 2.021323 -179.999991 0.000005 -1.244005 171.877107 0.132659 -0.600067 -0.000002 0.000000 0.050226 68.159264 6.988574 1.931176 25.456931 -7.348640 -0.000004 -1.550515 173.206453 -2.409431 -0.000020 -0.000004 -1.132810 -11.335077 1.939036 0.505649 0.000000 -0.000005 -0.244021 71.255627 -6.911947 -1.910766 25.456883 7.349428 0.000010 
54.036396 -28.184721 96.905289 -2.749451 0.537768 0.079492 -1.218890 0.094146 -0.229222 1.565430 0.197475 -0.439086 3.210488 0.192202 -0.441420 15.199590 5.392874 -0.171509 20.151213 -4.793285 1.060842 -9.397701 -70.460450 -11.783465 -57.544713 -119.996096 -49.708519 0.000002 0.000004 0.000000 8.109799 -7.113274 -0.387907 -0.000019 -0.000003 -2.999989 -5.000214 -7.999123 0.000114 -14.344251 61.196207 17.011956 -46.672404 117.708543 54.505733 -0.000001 -0.000003 0.000001 19.110316 16.241608 -2.125245 -0.000011 -0.000021 3.000001 -5.000245 7.998825 -0.000167 -0.333839 -176.798053 1.996742 -179.999991 0.000005 -1.242994 171.837929 0.141557 -0.600693 -0.000003 0.000000 0.050190 68.158533 6.988590 1.931225 25.456938 -7.348639 -0.000005 -1.616450 173.205688 -2.399064 -0.000020 -0.000005 -1.132310 -11.358787 1.938503 0.506325 0.000001 -0.000005 -0.244024 71.254985 -6.911954 -1.910708 25.456878 7.349429 0.000011 
54.016300 -28.171219 96.901398 -2.706561 0.541101 0.051840 -1.217333 0.093702 -0.231359 1.568539 0.196314 -0.445688 3.213597 0.190961 -0.448008 15.163177 5.438199 -0.174438 20.117771 -4.822287 1.061868 -9.349708 -70.428294 -11.728407 -57.470912 -120.030083 -49.653211 0.000002 0.000005 0.000001 8.092455 -7.116370 -0.389053 -0.000018 -0.000002 -2.999990 -5.000219 -7.999122 0.000114 -14.381155 61.185395 17.054777 -46.625013 117.680130 54.514386 -0.000001 -0.000002 0.000001 19.178895 16.278118 -2.141668 -0.000008 -0.000022 3.000002 -5.000246 7.998826 -0.000167 -0.421063 -176.807096 1.972166 -179.999991 0.000006 -1.241996 171.798328 0.150440 -0.602318 -0.000003 0.000001 0.050145 68.158089 6.988558 1.931247 25.456935 -7.348639 -0.000005 -1.682775 173.203912 -2.388449 -0.000020 -0.000004 -1.131810 -11.381896 1.937924 0.506959 0.000000 -0.000005 -0.244008 71.254241 -6.911961 -1.910755 25.456882 7.349429 0.000010 
54.015900 -28.153419 96.899796 -2.663202 0.544400 0.024243 -1.215961 0.093288 -0.233515 1.571289 0.195192 -0.452400 3.216347 0.189758 -0.454705 15.127069 5.483749 -0.177328 20.084233 -4.851415 1.062850 -9.301788 -70.396526 -11.673422 -57.398642 -120.063483 -49.599912 0.000001 0.000005 0.000001 8.074765 -7.119819 -0.390191 -0.000014 -0.000003 -2.999990 -5.000215 -7.999121 0.000114 -14.418528 61.174220 17.098166 -46.576426 117.651265 54.522091 -0.000001 -0.000003 0.000001 19.248356 16.314598 -2.158324 -0.000006 -0.000021 3.000001 -5.000247 7.998823 -0.000166 -0.508937 -176.817123 1.947621 -179.999991 0.000006 -1.240999 171.758412 0.159333 -0.602917 -0.000002 0.000001 0.050094 68.157679 6.988561 1.931175 25.456931 -7.348639 -0.000005 -1.749344 173.203147 -2.377712 -0.000020 -0.000005 -1.131309 -11.404707 1.937298 0.507564 0.000000 -0.000005 -0.243979 71.253592 -6.911939 -1.910691 25.456883 7.349429 0.000011 
54.017097 -28.136316 96.899391 -2.619563 0.547661 -0.003325 -1.214693 0.092893 -0.235682 1.573829 0.194090 -0.459175 3.218887 0.188575 -0.461466 15.091182 5.529433 -0.180194 20.050597 -4.880612 1.063783 -9.253812 -70.364752 -11.618383 -57.326672 -120.097033 -49.547043 0.000001 0.000004 -0.000000 8.056885 -7.123466 -0.391318 -0.000015 -0.000003 -2.999990 -5.000218 -7.999122 0.000114 -14.456220 61.162903 17.141910 -46.528502 117.621445 54.530690 -0.000003 -0.000002 0.000001 19.318067 16.351188 -2.175104 -0.000012 -0.000022 3.000001 -5.000246 7.998823 -0.000168 -0.597186 -176.826166 1.923085 -179.999991 0.000005 -1.240002 171.718332 0.168226 -0.604514 -0.000003 0.000000 0.050039 68.157256 6.988568 1.931304 25.456935 -7.348637 -0.000003 -1.816078 173.202382 -2.366882 -0.000020 -0.000004 -1.130820 -11.427317 1.936663 0.508153 0.000001 -0.000005 -0.243943 71.252841 -6.911948 -1.910741 25.456880 7.349429 0.000010 
54.010300 -28.115618 96.897194 -2.575867 0.550882 -0.030890 -1.213452 0.092502 -0.237853 1.576319 0.192993 -0.465964 3.221376 0.187397 -0.468242 15.055289 5.575150 -0.182998 20.016870 -4.909832 1.064674 -9.206000 -70.333067 -11.563521 -57.254740 -120.130556 -49.494276 0.000003 0.000005 0.000001 8.038963 -7.127167 -0.392457 -0.000016 -0.000002 -2.999989 -5.000218 -7.999123 0.000114 -14.493959 61.151558 17.185719 -46.479096 117.592334 54.537524 -0.000001 -0.000003 0.000001 19.388033 16.387700 -2.192024 -0.000005 -0.000021 3.000002 -5.000242 7.998824 -0.000167 -0.685528 -176.835237 1.898581 -179.999991 0.000005 -1.239005 171.678225 0.177116 -0.605088 -0.000003 0.000001 0.049983 68.156941 6.988579 1.931225 25.456936 -7.348638 -0.000005 -1.882850 173.201631 -2.356026 -0.000020 -0.000005 -1.130330 -11.449926 1.936019 0.508739 0.000001 -0.000005 -0.243905 71.252110 -6.911957 -1.910687 25.456878 7.349427 0.000011 
54.017696 -28.108719 96.902298 -2.532295 0.554059 -0.058476 -1.212159 0.092102 -0.240016 1.578909 0.191885 -0.472723 3.223967 0.186208 -0.474987 15.019403 5.620802 -0.185745 19.983240 -4.939022 1.065542 -9.158428 -70.301368 -11.508912 -57.182999 -120.164119 -49.441615 0.000001 0.000005 0.000001 8.021124 -7.130765 -0.393590 -0.000015 -0.000003 -2.999991 -5.000223 -7.999121 0.000114 -14.531489 61.140220 17.229294 -46.431158 117.562623 54.545980 -0.000001 -0.000002 0.000000 19.457812 16.424180 -2.208995 -0.000010 -0.000021 3.000000 -5.000245 7.998823 -0.000167 -0.773681 -176.845291 1.874120 -179.999991 0.000005 -1.237994 171.638187 0.185017 -0.606806 -0.000003 0.000001 0.049930 68.156620 6.988555 1.931240 25.456933 -7.348639 -0.000004 -1.949549 173.200907 -2.345227 -0.000020 -0.000004 -1.129840 -11.472535 1.935383 0.509330 0.000001 -0.000005 -0.243870 71.251345 -6.911935 -1.910729 25.456882 7.349429 0.000010 
54.032295 -28.030312 96.888191 -2.489069 0.557190 -0.086110 -1.210730 0.091680 -0.242167 1.581759 0.190748 -0.479403 3.226816 0.184991 -0.481653 14.983214 5.666310 -0.188401 19.949712 -4.968123 1.066387 -9.111109 -70.269348 -11.454557 -57.110080 -120.198366 -49.387343 0.000001 0.000004 0.000000 8.003535 -7.134112 -0.394740 -0.000017 -0.000003 -2.999991 -5.000215 -7.999123 0.000114 -14.568623 61.129128 17.272409 -46.382524 117.533950 54.553476 0.000001 -0.000001 0.000000 19.527120 16.460652 -2.225989 -0.000009 -0.000021 3.000001 -5.000244 7.998826 -0.000167 -0.861371 -176.854361 1.849699 -179.999991 0.000005 -1.236997 171.598367 0.193891 -0.607358 -0.000002 0.000001 0.049881 68.156204 6.988560 1.931168 25.456931 -7.348641 -0.000005 -2.016052 173.200183 -2.334529 -0.000020 -0.000005 -1.129350 -11.495445 1.934767 0.509939 0.000001 -0.000005 -0.243845 71.250600 -6.911943 -1.910778 25.456880 7.349429 0.000010 
54.017799 -28.010717 96.884293 -2.446375 0.560273 -0.113818 -1.209101 0.091221 -0.244296 1.585039 0.189566 -0.485958 3.230096 0.183732 -0.488193 14.946619 5.711572 -0.190947 19.916379 -4.997091 1.067222 -9.064104 -70.237000 -11.400523 -57.038818 -120.232120 -49.334651 0.000005 0.000005 0.000002 7.986345 -7.137063 -0.395906 -0.000018 -0.000002 -2.999990 -5.000216 -7.999122 0.000114 -14.605075 61.118295 17.314733 -46.336300 117.505085 54.563424 0.000000 -0.000003 0.000001 19.595709 16.496951 -2.242934 -0.000009 -0.000022 2.999999 -5.000241 7.998826 -0.000166 -0.948318 -176.864443 1.825333 -179.999991 0.000005 -1.235999 171.558875 0.203762 -0.608762 -0.000003 0.000000 0.049838 68.155582 6.988584 1.931213 25.456930 -7.348638 -0.000005 -2.082253 173.199459 -2.324025 -0.000020 -0.000005 -1.128850 -11.518752 1.934195 0.510584 -0.000000 -0.000005 -0.243835 71.249965 -6.911951 -1.910719 25.456878 7.349430 0.000010 
54.021194 -27.982418 96.889091 -2.404424 0.563306 -0.141622 -1.207169 0.090712 -0.246393 1.588889 0.188323 -0.492340 3.233946 0.182411 -0.494559 14.909418 5.756506 -0.193390 19.883347 -5.025868 1.068059 -9.017612 -70.204325 -11.347010 -56.966274 -120.266463 -49.280047 0.000001 0.000005 0.000001 7.969681 -7.139462 -0.397084 -0.000017 -0.000002 -2.999990 -5.000218 -7.999123 0.000114 -14.640656 61.107954 17.356057 -46.290197 117.477601 54.573119 -0.000003 -0.000002 0.000000 19.663285 16.533202 -2.259818 -0.000007 -0.000021 3.000001 -5.000250 7.998824 -0.000168 -1.034240 -176.873500 1.801005 -179.999991 0.000005 -1.235003 171.519888 0.212646 -0.609290 -0.000002 0.000000 0.049806 68.154940 6.988574 1.931150 25.456935 -7.348639 -0.000005 -2.148037 173.198735 -2.313758 -0.000020 -0.000004 -1.128339 -11.542565 1.933678 0.511270 0.000000 -0.000005 -0.243844 71.249323 -6.911958 -1.910661 25.456880 7.349428 0.000011 
53.998001 -27.943218 96.879089 -2.363417 0.566287 -0.169551 -1.204882 0.090140 -0.248452 1.593468 0.186999 -0.498502 3.238526 0.181015 -0.500706 14.871601 5.800993 -0.195687 19.850507 -5.054415 1.068894 -8.971595 -70.171014 -11.293976 -56.894028 -120.300941 -49.225214 0.000002 0.000005 0.000001 7.953702 -7.141174 -0.398270 -0.000014 -0.000002 -2.999990 -5.000220 -7.999122 0.000114 -14.675136 61.098235 17.396113 -46.247453 117.450321 54.586134 -0.000002 -0.000002 0.000000 19.729510 16.569250 -2.276558 -0.000008 -0.000022 3.000001 -5.000245 7.998823 -0.000164 -1.118857 -176.883581 1.776765 -179.999991 0.000005 -1.234005 171.481489 0.221526 -0.610820 -0.000003 0.000000 0.049785 68.153998 6.988576 1.931210 25.456930 -7.348639 -0.000004 -2.213298 173.197041 -2.303763 -0.000020 -0.000005 -1.127820 -11.567176 1.933234 0.512016 0.000001 -0.000005 -0.243880 71.248681 -6.911966 -1.910701 25.456880 7.349427 0.000010 
